<svg xmlns="http://www.w3.org/2000/svg" viewBox="0 0 512 512" role="img" aria-label="ReportAr">
  <defs>
    <linearGradient id="g" x1="0" y1="0" x2="1" y2="1">
      <stop offset="0" stop-color="#172554"/>
      <stop offset="0.55" stop-color="#0f766e"/>
      <stop offset="1" stop-color="#d6a54f"/>
    </linearGradient>
  </defs>
  <rect width="512" height="512" rx="110" fill="url(#g)"/>
  <path d="M150 126h212c20 0 36 16 36 36v238H150c-20 0-36-16-36-36V162c0-20 16-36 36-36Z" fill="#fff8ed" opacity=".97"/>
  <path d="M165 188h180M165 238h122M165 288h160" stroke="#172554" stroke-width="18" stroke-linecap="round"/>
  <path d="M317 316c32 0 58 20 58 44 0 7-3 15-8 21h-99c-5-6-8-14-8-21 0-24 26-44 57-44Z" fill="#0f766e"/>
  <circle cx="317" cy="277" r="31" fill="#d6a54f"/>
</svg>
